<?xml version="1.0" encoding="iso-8859-1"?>
<!-- Generator: Adobe Illustrator 19.0.0, SVG Export Plug-In . SVG Version: 6.00 Build 0)  -->
<svg version="1.1" id="Layer_1" xmlns="http://www.w3.org/2000/svg" xmlns:xlink="http://www.w3.org/1999/xlink" x="0px" y="0px"
	 viewBox="0 0 512 512" style="enable-background:new 0 0 512 512;" xml:space="preserve">
<g>
	<g>
		<circle fill="white" cx="171.145" cy="317.122" r="15.877"/>
	</g>
</g>
<g>
	<g>
		<circle fill="white" cx="340.855" cy="317.122" r="15.877"/>
	</g>
</g>
<g>
	<g>
		<path fill="white" d="M311.901,363.516H200.099c-5.262,0-9.529,4.266-9.529,9.529c0,36.078,29.352,65.429,65.429,65.429
			s65.429-29.352,65.429-65.429C321.429,367.782,317.163,363.516,311.901,363.516z M256,419.417
			c-22.304,0-40.982-15.829-45.389-36.844h12.955v5.314c0,5.262,4.266,9.529,9.529,9.529c5.262,0,9.529-4.266,9.529-9.529v-5.314
			h26.752v5.314c0,5.262,4.266,9.529,9.529,9.529c5.262,0,9.529-4.266,9.529-9.529v-5.314h12.955
			C296.982,403.588,278.304,419.417,256,419.417z"/>
	</g>
</g>
<g>
	<g>
		<path fill="white" d="M283.402,307.201c-4.64-2.482-10.414-0.737-12.898,3.904l-12.2,22.792c-0.61,1.14-1.589,1.38-2.303,1.38
			s-1.693-0.239-2.303-1.38l-12.2-22.791c-2.484-4.64-8.258-6.387-12.898-3.904c-4.64,2.484-6.387,8.258-3.904,12.898l12.2,22.79
			c3.778,7.059,11.1,11.443,19.107,11.443s15.326-4.386,19.104-11.443l12.2-22.791C289.789,315.459,288.041,309.685,283.402,307.201
			z"/>
	</g>
</g>
<g>
	<g>
		<path fill="white" d="M198.838,276.486l-51.03-9.46c-5.176-0.955-10.146,2.458-11.106,7.632c-0.959,5.175,2.458,10.146,7.632,11.106l51.03,9.46
			c0.588,0.109,1.171,0.161,1.748,0.161c4.503,0,8.508-3.207,9.358-7.793C207.429,282.418,204.011,277.447,198.838,276.486z"/>
	</g>
</g>
<g>
	<g>
		<path fill="white" d="M375.297,274.658c-0.958-5.173-5.932-8.591-11.105-7.632l-51.03,9.46c-5.175,0.959-8.591,5.932-7.632,11.107
			c0.85,4.588,4.854,7.793,9.358,7.793c0.576,0,1.161-0.053,1.747-0.161l51.03-9.46C372.84,284.805,376.256,279.833,375.297,274.658
			z"/>
	</g>
</g>
<g>
	<g>
		<path fill="white" d="M502.471,236.713h-17.158c-15.891,0-30.631,5.816-41.919,15.737v-44.728c0-16.477-2.155-32.858-6.404-48.692
			C415.071,77.364,340.645,20.328,256,20.328S96.929,77.364,75.024,158.98l-0.166,0.609c-4.148,15.634-6.252,31.829-6.252,48.133
			v44.728c-11.288-9.921-26.028-15.737-41.919-15.737H9.529c-5.262,0-9.529,4.266-9.529,9.529v39.759
			c0,21.043,8.06,40.954,22.696,56.065c12.503,12.909,28.659,21.124,46.196,23.677c4.471,70.191,62.986,125.93,134.285,125.93
			h105.647c71.299,0,129.814-55.739,134.285-125.929c17.536-2.552,33.693-10.767,46.196-23.677
			C503.94,326.956,512,307.045,512,286.002v-39.759C512,240.979,507.734,236.713,502.471,236.713z M68.605,346.395
			c-28.46-5.557-49.548-30.42-49.548-60.393v-30.231h7.629c19.013,0,35.685,11.88,41.919,29.707V346.395z M424.337,283.938v73.102
			v0.062c0,63.694-51.82,115.514-115.514,115.514H203.176c-63.694,0-115.514-51.82-115.514-115.514v-0.062v-73.1v-76.217
			c0-14.655,1.889-29.204,5.594-43.171l0.159-0.582C113.105,90.616,179.962,39.385,256,39.385s142.895,51.232,162.583,124.586
			c3.819,14.222,5.754,28.943,5.754,43.751V283.938z M492.943,286.002c0,29.973-21.089,54.837-49.548,60.393v-60.918
			c6.235-17.827,22.907-29.706,41.919-29.706h7.629V286.002z"/>
	</g>
</g>
<g>
</g>
<g>
</g>
<g>
</g>
<g>
</g>
<g>
</g>
<g>
</g>
<g>
</g>
<g>
</g>
<g>
</g>
<g>
</g>
<g>
</g>
<g>
</g>
<g>
</g>
<g>
</g>
<g>
</g>
</svg>
